<svg id="图层_1" data-name="图层 1" xmlns="http://www.w3.org/2000/svg" xmlns:xlink="http://www.w3.org/1999/xlink" viewBox="0 0 53.68 38.3"><defs><style>.cls-1{fill:url(#linear-gradient);}.cls-2{fill:url(#linear-gradient-2);}.cls-3{fill:url(#linear-gradient-3);}.cls-4{fill:url(#linear-gradient-4);}.cls-5{fill:url(#linear-gradient-5);}.cls-6{fill:url(#linear-gradient-6);}.cls-7{fill:url(#linear-gradient-7);}.cls-8{fill:url(#linear-gradient-8);}.cls-9{fill:url(#linear-gradient-9);}.cls-10{fill:url(#linear-gradient-10);}.cls-11{fill:url(#linear-gradient-11);}</style><linearGradient id="linear-gradient" x1="16.64" y1="18.92" x2="16.64" y2="13.74" gradientUnits="userSpaceOnUse"><stop offset="0.1" stop-color="#3789ca"/><stop offset="0.83" stop-color="#7ecbda"/></linearGradient><linearGradient id="linear-gradient-2" x1="19.52" y1="23.9" x2="19.52" y2="18.48" xlink:href="#linear-gradient"/><linearGradient id="linear-gradient-3" x1="22.43" y1="28.72" x2="22.43" y2="23.59" xlink:href="#linear-gradient"/><linearGradient id="linear-gradient-4" x1="25.19" y1="23.94" x2="25.19" y2="18.55" xlink:href="#linear-gradient"/><linearGradient id="linear-gradient-5" x1="36.48" y1="23.9" x2="36.48" y2="18.9" xlink:href="#linear-gradient"/><linearGradient id="linear-gradient-6" x1="39.24" y1="19.17" x2="39.24" y2="13.94" xlink:href="#linear-gradient"/><linearGradient id="linear-gradient-7" x1="30.82" y1="23.9" x2="30.82" y2="18.77" xlink:href="#linear-gradient"/><linearGradient id="linear-gradient-8" x1="33.75" y1="28.72" x2="33.75" y2="23.75" xlink:href="#linear-gradient"/><linearGradient id="linear-gradient-9" x1="27.92" y1="19.08" x2="27.92" y2="13.88" gradientUnits="userSpaceOnUse"><stop offset="0.05" stop-color="#3789ca"/><stop offset="0.1" stop-color="#3789ca"/><stop offset="0.83" stop-color="#7ecbda"/></linearGradient><linearGradient id="linear-gradient-10" x1="364.86" y1="2.21" x2="369.17" y2="6.16" gradientTransform="translate(-360.25 2.25)" xlink:href="#linear-gradient"/><linearGradient id="linear-gradient-11" x1="395.19" y1="21.55" x2="392.23" y2="17.98" gradientTransform="translate(-345.97 12.48)" xlink:href="#linear-gradient"/></defs><title>fullscreen_close</title><polygon class="cls-1" points="19.06 14.99 19.1 17.76 16.68 19.11 14.22 17.7 14.19 14.93 16.61 13.57 19.06 14.99"/><polygon class="cls-2" points="21.93 19.86 21.97 22.63 19.55 23.98 17.1 22.56 17.06 19.79 19.48 18.44 21.93 19.86"/><polygon class="cls-3" points="24.85 24.71 24.89 27.48 22.47 28.84 20.01 27.42 19.98 24.65 22.4 23.29 24.85 24.71"/><polygon class="cls-4" points="27.61 19.93 27.65 22.7 25.23 24.06 22.77 22.64 22.73 19.87 25.15 18.51 27.61 19.93"/><polygon class="cls-5" points="38.9 20.08 38.94 22.85 36.52 24.21 34.06 22.79 34.02 20.02 36.44 18.66 38.9 20.08"/><polygon class="cls-6" points="41.66 15.32 41.7 18.09 39.28 19.44 36.82 18.02 36.78 15.25 39.2 13.9 41.66 15.32"/><polygon class="cls-7" points="33.24 20.01 33.28 22.78 30.86 24.13 28.4 22.71 28.36 19.94 30.78 18.59 33.24 20.01"/><polygon class="cls-8" points="36.17 24.84 36.21 27.62 33.79 28.97 31.33 27.55 31.3 24.78 33.72 23.43 36.17 24.84"/><polygon class="cls-9" points="30.34 15.14 30.38 17.91 27.96 19.26 25.5 17.84 25.46 15.07 27.88 13.72 30.34 15.14"/><polygon class="cls-10" points="9.37 9.06 0 9.06 4.59 4.59 9.37 0 9.37 9.06"/><polygon class="cls-11" points="44.3 29.23 53.68 29.23 49.08 33.7 44.3 38.3 44.3 29.23"/></svg>