<svg id="图层_1" data-name="图层 1" xmlns="http://www.w3.org/2000/svg" xmlns:xlink="http://www.w3.org/1999/xlink" viewBox="0 0 19 10.64"><defs><style>.cls-1{fill:url(#linear-gradient);}.cls-2{fill:url(#linear-gradient-2);}.cls-3{fill:url(#linear-gradient-3);}.cls-4{fill:url(#linear-gradient-4);}.cls-5{fill:url(#linear-gradient-5);}.cls-6{fill:url(#linear-gradient-6);}.cls-7{fill:url(#linear-gradient-7);}.cls-8{fill:url(#linear-gradient-8);}.cls-9{fill:url(#linear-gradient-9);}</style><linearGradient id="linear-gradient" x1="1.7" y1="3.7" x2="1.7" y2="0.12" gradientUnits="userSpaceOnUse"><stop offset="0.1" stop-color="#3789ca"/><stop offset="0.83" stop-color="#7ecbda"/></linearGradient><linearGradient id="linear-gradient-2" x1="3.68" y1="7.14" x2="3.68" y2="3.39" xlink:href="#linear-gradient"/><linearGradient id="linear-gradient-3" x1="5.69" y1="10.47" x2="5.69" y2="6.92" xlink:href="#linear-gradient"/><linearGradient id="linear-gradient-4" x1="7.6" y1="7.16" x2="7.6" y2="3.44" xlink:href="#linear-gradient"/><linearGradient id="linear-gradient-5" x1="15.4" y1="7.14" x2="15.4" y2="3.68" xlink:href="#linear-gradient"/><linearGradient id="linear-gradient-6" x1="17.3" y1="3.86" x2="17.3" y2="0.26" xlink:href="#linear-gradient"/><linearGradient id="linear-gradient-7" x1="11.49" y1="7.14" x2="11.49" y2="3.59" xlink:href="#linear-gradient"/><linearGradient id="linear-gradient-8" x1="13.51" y1="10.47" x2="13.51" y2="7.03" xlink:href="#linear-gradient"/><linearGradient id="linear-gradient-9" x1="9.48" y1="3.81" x2="9.48" y2="0.21" gradientUnits="userSpaceOnUse"><stop offset="0.05" stop-color="#3789ca"/><stop offset="0.1" stop-color="#3789ca"/><stop offset="0.83" stop-color="#7ecbda"/></linearGradient></defs><title>safari-pinned-tab</title><polygon class="cls-1" points="3.37 0.98 3.39 2.89 1.72 3.83 0.03 2.85 0 0.94 1.67 0 3.37 0.98"/><polygon class="cls-2" points="5.35 4.34 5.38 6.25 3.71 7.19 2.01 6.21 1.98 4.3 3.65 3.36 5.35 4.34"/><polygon class="cls-3" points="7.37 7.69 7.39 9.61 5.72 10.54 4.02 9.56 4 7.65 5.67 6.71 7.37 7.69"/><polygon class="cls-4" points="9.27 4.39 9.29 6.31 7.63 7.24 5.93 6.26 5.9 4.35 7.57 3.41 9.27 4.39"/><polygon class="cls-5" points="17.07 4.5 17.09 6.41 15.42 7.34 13.73 6.37 13.7 4.45 15.37 3.52 17.07 4.5"/><polygon class="cls-6" points="18.97 1.21 19 3.12 17.33 4.05 15.63 3.08 15.61 1.16 17.28 0.23 18.97 1.21"/><polygon class="cls-7" points="13.16 4.44 13.18 6.36 11.51 7.29 9.82 6.31 9.79 4.4 11.46 3.46 13.16 4.44"/><polygon class="cls-8" points="15.18 7.79 15.21 9.7 13.54 10.63 11.84 9.66 11.82 7.74 13.49 6.81 15.18 7.79"/><polygon class="cls-9" points="11.15 1.08 11.18 3 9.51 3.93 7.81 2.95 7.79 1.04 9.46 0.1 11.15 1.08"/></svg>