{"accessors":[{"bufferView":0,"componentType":5123,"count":47772,"max":[8175],"min":[0],"type":"SCALAR"},{"bufferView":1,"componentType":5126,"count":8176,"max":[0.4560132622718811,0.4660491645336151,1.0423927307128906],"min":[-0.4263043701648712,-0.54874587059021,-0.9472326636314392],"type":"VEC3"},{"bufferView":2,"componentType":5126,"count":8176,"max":[0.999847412109375,0.999847412109375,0.999969482421875],"min":[-0.99981689453125,-0.99993896484375,-0.9956969022750854],"type":"VEC3"},{"bufferView":3,"componentType":5126,"count":8176,"max":[0.9980400204658508,0.9980500000528991],"min":[0.0019499999471008778,0.2497599720954895],"type":"VEC2"}],"asset":{"generator":"Soft8Soft Verge3D for Blender add-on","version":"2.0"},"bufferViews":[{"buffer":0,"byteLength":95544,"byteOffset":0,"target":34963},{"buffer":0,"byteLength":98112,"byteOffset":95544,"target":34962},{"buffer":0,"byteLength":98112,"byteOffset":193656,"target":34962},{"buffer":0,"byteLength":65408,"byteOffset":291768,"target":34962}],"buffers":[{"byteLength":357176,"uri":"tuzi.bin"}],"cameras":[{"extensions":{"S8S_v3d_camera_data":{"controls":"ORBIT","enablePan":true,"moveSpeed":1.0,"orbitMaxDistance":8.0,"orbitMaxPolarAngle":3.1415927410125732,"orbitMinDistance":2.0,"orbitMinPolarAngle":0.0,"orbitTarget":[0.0,0.0,-0.0],"rotateSpeed":1.0,"viewportFitInitialAspect":1.7777777777777777,"viewportFitType":"AUTO"}},"name":"Camera","perspective":{"aspectRatio":1.7777777777777777,"yfov":0.1835736330984524,"zfar":100.0,"znear":0.10000000149011612},"type":"perspective"}],"extensionsUsed":["S8S_v3d_texture_data","S8S_v3d_material_data","S8S_v3d_camera_data","S8S_v3d_mesh_data","S8S_v3d_node_data","S8S_v3d_scene_data"],"images":[{"uri":"tuzi_AO.png"},{"uri":"tuzi_Color.jpg"},{"uri":"environment.hdr"}],"materials":[{"extensions":{"S8S_v3d_material_data":{"nodeGraph":{"edges":[{"fromNode":0,"fromOutput":0,"toInput":0,"toNode":1},{"fromNode":2,"fromOutput":0,"toInput":0,"toNode":0},{"fromNode":4,"fromOutput":0,"toInput":4,"toNode":5},{"fromNode":3,"fromOutput":0,"toInput":0,"toNode":2},{"fromNode":5,"fromOutput":0,"toInput":2,"toNode":2}],"nodes":[{"inputs":[[0.800000011920929,0.800000011920929,0.800000011920929,1.0],0.0,[1.0,0.20000000298023224,0.10000000149011612],[0.800000011920929,0.800000011920929,0.800000011920929,1.0],0.0,0.0,0.0,1.0,0.0,0.0,0.0,0.5,0.0,0.029999999329447746,1.4500000476837158,0.0,0.0,[0.0,0.0,0.0,1.0],1.0,[0.0,0.0,0.0],[0.0,0.0,0.0],[0.0,0.0,0.0]],"is_active_output":false,"name":"Principled BSDF","outputs":[[0,0,0,0]],"type":"BSDF_PRINCIPLED_BL"},{"inputs":[[0,0,0,0],[0,0,0,0],[0.0,0.0,0.0]],"is_active_output":true,"name":"Material Output","outputs":[],"type":"OUTPUT_MATERIAL_BL"},{"blendType":"MIX","inputs":[0.5,[0.03114236518740654,0.03114236518740654,0.03114236518740654,1.0],[0.5,0.5,0.5,1.0]],"is_active_output":false,"name":"混合","outputs":[[0.0,0.0,0.0,0.0]],"type":"MIX_RGB_BL","useClamp":false},{"inputs":[[0.0,0.0,0.0]],"is_active_output":false,"name":"图像纹理.001","outputs":[[0.0,0.0,0.0,0.0],0.0],"projection":"FLAT","projectionBlend":0.0,"texture":0,"type":"TEX_IMAGE_BL"},{"inputs":[[0.0,0.0,0.0]],"is_active_output":false,"name":"图像纹理","outputs":[[0.0,0.0,0.0,0.0],0.0],"projection":"FLAT","projectionBlend":0.0,"texture":1,"type":"TEX_IMAGE_BL"},{"inputs":[0.5,1.2999999523162842,1.0,1.0,[0.800000011920929,0.800000011920929,0.800000011920929,1.0]],"is_active_output":false,"name":"色相/饱和度/明度","outputs":[[0.0,0.0,0.0,0.0]],"type":"HUE_SAT_BL"}]},"useCastShadows":true}},"name":"defaultMat"},{"extensions":{"S8S_v3d_material_data":{"nodeGraph":{"edges":[{"fromNode":1,"fromOutput":0,"toInput":0,"toNode":0},{"fromNode":3,"fromOutput":0,"toInput":0,"toNode":1},{"fromNode":2,"fromOutput":0,"toInput":0,"toNode":3},{"fromNode":4,"fromOutput":0,"toInput":1,"toNode":3}],"nodes":[{"inputs":[[0,0,0,0],[0,0,0,0]],"is_active_output":true,"name":"World Output","outputs":[],"type":"OUTPUT_WORLD_BL"},{"inputs":[[0.05087608844041824,0.05087608844041824,0.05087608844041824,1.0],1.0],"is_active_output":false,"name":"Background","outputs":[[0,0,0,0]],"type":"BACKGROUND_BL"},{"inputs":[],"is_active_output":false,"name":"光程","outputs":[0.0,0.0,0.0,0.0,0.0,0.0,0.0,0.0,0.0,0.0,0.0,0.0,0.0],"type":"LIGHT_PATH_BL"},{"blendType":"MIX","inputs":[0.5,[0.5,0.5,0.5,1.0],[1.0,1.0,1.0,1.0]],"is_active_output":false,"name":"混合","outputs":[[0.0,0.0,0.0,0.0]],"type":"MIX_RGB_BL","useClamp":false},{"inputs":[[0.0,0.0,0.0]],"is_active_output":false,"name":"环境纹理","outputs":[[0.0,0.0,0.0,0.0]],"projection":"EQUIRECTANGULAR","texture":2,"type":"TEX_ENVIRONMENT_BL"}]},"useCastShadows":true}},"name":"Verge3D_Environment_World"}],"meshes":[{"extensions":{"S8S_v3d_mesh_data":{"colorLayers":{},"uvLayers":{"UVMap":"TEXCOORD_0"}}},"name":"tuzi-dimo","primitives":[{"attributes":{"NORMAL":2,"POSITION":1,"TEXCOORD_0":3},"indices":0,"material":0,"mode":4}]}],"nodes":[{"camera":0,"extensions":{"S8S_v3d_node_data":{"frustumCulling":true,"groupNames":["Collection"],"hidden":false,"renderOrder":0}},"name":"Camera","rotation":[-0.08424128592014313,0.8525079488754272,0.14506424963474274,0.49506571888923645],"scale":[1.0000001192092896,1.0,1.0],"translation":[6.404387474060059,2.584298610687256,-3.6546380519866943]},{"extensions":{"S8S_v3d_node_data":{"frustumCulling":true,"groupNames":["Collection"],"hidden":false,"renderOrder":0,"useShadows":true}},"mesh":0,"name":"tuzi-dimo"}],"samplers":[{}],"scene":0,"scenes":[{"extensions":{"S8S_v3d_scene_data":{"aaMethod":"MSAA8","iblEnvironmentMode":"PMREM","physicallyCorrectLights":true,"pmremMaxTileSize":512,"shadowMap":{"esmDistanceScale":1.0,"renderReverseSided":false,"renderSingleSided":false,"type":"PCFPOISSON"},"toneMapping":{"type":"filmicBlender"},"worldMaterial":1}},"extras":{"animFrameRate":24,"coordSystem":"Z_UP_RIGHT"},"name":"Scene","nodes":[0,1]}],"textures":[{"extensions":{"S8S_v3d_texture_data":{"anisotropy":8,"colorSpace":"non-color"}},"name":"tuzi_AO.png","sampler":0,"source":0},{"extensions":{"S8S_v3d_texture_data":{"anisotropy":8,"colorSpace":"srgb"}},"name":"tuzi_Color.jpg","sampler":0,"source":1},{"extensions":{"S8S_v3d_texture_data":{"colorSpace":"linear"}},"name":"environment.hdr","sampler":0,"source":2}]}
